<?xml version="1.0" standalone="no"?>
<!DOCTYPE svg PUBLIC "-//W3C//DTD SVG 20010904//EN"
 "http://www.w3.org/TR/2001/REC-SVG-20010904/DTD/svg10.dtd">
<svg version="1.0" xmlns="http://www.w3.org/2000/svg"
 width="700.000000pt" height="700.000000pt" viewBox="0 0 700.000000 700.000000"
 preserveAspectRatio="xMidYMid meet">
<metadata>
Created by potrace 1.14, written by Peter Selinger 2001-2017
</metadata>
<g transform="translate(0.000000,700.000000) scale(0.100000,-0.100000)"
fill="#000000" stroke="none">
<path d="M879 4957 c-1 -1 -2 -131 -3 -289 -1 -186 2 -289 9 -291 5 -2 136 -3
290 -3 l280 1 2 292 2 291 -289 0 c-160 0 -291 0 -291 -1z"/>
<path d="M2043 4667 l2 -292 2037 0 c1350 0 2039 3 2041 10 2 6 3 136 3 290
l-1 280 -2042 2 -2041 2 1 -292z"/>
<path d="M875 3500 l0 -290 292 0 292 0 0 290 0 290 -292 0 -292 0 0 -290z"/>
<path d="M2047 3782 c-3 -4 -5 -134 -5 -290 l0 -282 2041 0 2042 0 0 290 0
290 -2037 0 c-1120 0 -2039 -3 -2041 -8z"/>
<path d="M881 2620 c-4 -3 -7 -133 -6 -290 l0 -285 290 0 290 0 0 290 0 290
-283 0 c-156 0 -287 -2 -291 -5z"/>
<path d="M2044 2615 c-2 -5 -2 -136 -1 -290 l2 -280 2040 0 2040 0 0 290 0
290 -2039 0 c-1353 0 -2040 -3 -2042 -10z"/>
</g>
</svg>
